<svg width="21" height="21" viewBox="0 0 21 21" fill="none" xmlns="http://www.w3.org/2000/svg">
<path d="M5.68457 2.38049L3.18457 5.71383V17.3805C3.18457 17.8225 3.36016 18.2464 3.67273 18.559C3.98529 18.8716 4.40921 19.0472 4.85124 19.0472H16.5179C16.9599 19.0472 17.3839 18.8716 17.6964 18.559C18.009 18.2464 18.1846 17.8225 18.1846 17.3805V5.71383L15.6846 2.38049H5.68457Z" stroke="#4E60FF" stroke-width="1.51789" stroke-linecap="round" stroke-linejoin="round"/>
<path d="M3.18457 5.71381H18.1846" stroke="#4E60FF" stroke-width="1.51789" stroke-linecap="round" stroke-linejoin="round"/>
<path d="M14.018 9.04712C14.018 9.93117 13.6668 10.779 13.0417 11.4041C12.4166 12.0293 11.5687 12.3805 10.6847 12.3805C9.8006 12.3805 8.95275 12.0293 8.32763 11.4041C7.70251 10.779 7.35132 9.93117 7.35132 9.04712" stroke="#4E60FF" stroke-width="1.51789" stroke-linecap="round" stroke-linejoin="round"/>
</svg>
