<svg width="11" height="16" viewBox="0 0 11 16" fill="none" xmlns="http://www.w3.org/2000/svg">
<path d="M2.68811 3.81346V2.46422C2.68811 2.10639 2.83026 1.7632 3.08329 1.51017C3.33633 1.25714 3.67951 1.11499 4.03735 1.11499L6.73582 1.11499C7.09366 1.11499 7.43684 1.25714 7.68987 1.51017C7.9429 1.7632 8.08505 2.10639 8.08505 2.46422V3.81346M10.1089 3.81346L10.1089 13.2581C10.1089 13.6159 9.96675 13.9591 9.71372 14.2122C9.46069 14.4652 9.11751 14.6073 8.75967 14.6073L2.0135 14.6073C1.65566 14.6073 1.31247 14.4652 1.05944 14.2122C0.806412 13.9591 0.664261 13.6159 0.664261 13.2581L0.664261 3.81346L10.1089 3.81346Z" stroke="#C7C8D2" stroke-width="1.3155" stroke-linecap="round" stroke-linejoin="round"/>
</svg>
